<?xml version="1.0" encoding="UTF-8"?>
<!DOCTYPE svg PUBLIC "-//W3C//DTD SVG 1.1//EN" "http://www.w3.org/Graphics/SVG/1.1/DTD/svg11.dtd">
<!-- Creator: CorelDRAW X7 -->
<svg xmlns="http://www.w3.org/2000/svg" xml:space="preserve" width="40.64mm" height="8.72067mm" version="1.1" style="shape-rendering:geometricPrecision; text-rendering:geometricPrecision; image-rendering:optimizeQuality; fill-rule:evenodd; clip-rule:evenodd"
viewBox="0 0 40640 8721"
 xmlns:xlink="http://www.w3.org/1999/xlink">
 <defs>
  <style type="text/css">
   <![CDATA[
    .fil2 {fill:#8EDEBE}
    .fil3 {fill:#AEA5A5}
    .fil4 {fill:#D0BB85}
    .fil0 {fill:#EE4A72}
    .fil1 {fill:#FF9B5D}
    .fil5 {fill:#FEFEFE;fill-rule:nonzero}
   ]]>
  </style>
 </defs>
 <g id="Layer_x0020_1">
  <metadata id="CorelCorpID_0Corel-Layer"/>
  <g id="_412501016">
   <rect class="fil0" y="3513" width="1736" height="1736"/>
   <rect class="fil1" x="6009" y="1777" width="935" height="935"/>
   <rect class="fil1" x="3472" y="41" width="1736" height="1736"/>
   <rect class="fil1" x="6944" y="3513" width="1736" height="1736"/>
   <rect class="fil2" x="5208" y="5249" width="1736" height="1736"/>
   <rect class="fil3" x="3472" y="5249" width="1736" height="1736"/>
   <rect class="fil0" x="1736" y="5249" width="1736" height="1736"/>
   <rect class="fil4" x="5208" y="3513" width="1736" height="1736"/>
   <g>
    <polygon class="fil2" points="1736,1777 3472,1777 3472,2959 2919,2959 2919,3513 1736,3513 "/>
    <polygon class="fil4" points="3472,1777 5208,1777 5208,3513 4025,3513 4025,2959 3472,2959 "/>
    <polygon class="fil2" points="4025,3513 5208,3513 5208,5249 3472,5249 3472,4066 4025,4066 "/>
    <polygon class="fil3" points="1736,3513 2919,3513 2919,4066 3472,4066 3472,5249 1736,5249 "/>
   </g>
   <rect class="fil0" x="3472" y="6985" width="1736" height="1736"/>
   <rect class="fil0" x="12152" y="5249" width="1736" height="1736"/>
   <rect class="fil1" x="18161" y="1777" width="935" height="935"/>
   <rect class="fil2" x="17360" y="5249" width="1736" height="1736"/>
   <rect class="fil4" x="17360" y="3513" width="1736" height="1736"/>
   <rect class="fil2" x="20832" y="1777" width="1736" height="1736"/>
   <rect class="fil2" x="24304" y="5249" width="1736" height="1736"/>
   <rect class="fil0" x="20832" y="5249" width="1736" height="1736"/>
   <rect class="fil2" x="22568" y="3513" width="1736" height="1736"/>
   <rect class="fil1" x="24304" y="1777" width="1736" height="1736"/>
   <rect class="fil2" x="27776" y="1777" width="1736" height="1736"/>
   <rect class="fil0" x="27776" y="5249" width="1736" height="1736"/>
   <g>
    <polygon class="fil4" points="29512,1777 31248,1777 31248,2959 30164,2959 30164,3513 29512,3513 "/>
    <polygon class="fil3" points="29512,5249 30164,5249 30164,5802 31248,5802 31248,6985 29512,6985 "/>
    <polygon class="fil2" points="29512,3513 30164,3513 30164,4066 31248,4066 31248,4695 30164,4695 30164,5249 29512,5249 "/>
   </g>
   <rect class="fil3" x="27776" y="3513" width="1736" height="1736"/>
   <rect class="fil2" x="32984" y="1777" width="1736" height="1736"/>
   <rect class="fil3" x="34720" y="5249" width="1736" height="1736"/>
   <rect class="fil0" x="32984" y="5249" width="1736" height="1736"/>
   <rect class="fil3" x="32984" y="3513" width="1736" height="1736"/>
   <g>
    <polygon class="fil2" points="12152,1777 13888,1777 13888,2959 13335,2959 13335,3513 12152,3513 "/>
    <polygon class="fil4" points="13888,1777 15624,1777 15624,3513 14441,3513 14441,2959 13888,2959 "/>
    <polygon class="fil2" points="14441,3513 15624,3513 15624,5249 13888,5249 13888,4066 14441,4066 "/>
    <polygon class="fil3" points="12152,3513 13335,3513 13335,4066 13888,4066 13888,5249 12152,5249 "/>
   </g>
   <path class="fil5" d="M38113 569l-229 485 340 0 -106 -485 -5 0zm-108 -332l-77 -138c19,-15 37,-25 54,-31 64,-22 143,-33 233,-33 93,0 164,26 214,79 44,46 79,111 107,193 27,83 53,201 76,354 13,78 24,136 33,175 30,110 49,180 59,210 9,31 27,80 52,147 9,19 19,46 33,81 14,34 28,67 40,97 27,65 69,151 126,259 -71,49 -130,84 -179,106 -49,22 -93,33 -133,33 -50,0 -91,-10 -124,-29 -33,-19 -63,-50 -90,-92 -32,-57 -64,-134 -96,-232 -3,-9 -7,-21 -11,-36 -5,-14 -10,-29 -15,-46 -98,41 -175,61 -230,61 -31,0 -58,0 -80,-2 -20,-1 -109,-4 -269,-7l-12 27c-46,96 -89,170 -130,221 -40,52 -86,88 -138,109 -53,21 -118,31 -197,31 -45,0 -77,-5 -97,-15 -19,-10 -28,-27 -28,-49 0,-28 45,-104 138,-229 32,-44 57,-78 73,-103 -88,-17 -132,-48 -132,-93 0,-37 35,-92 106,-164 33,-35 64,-57 93,-67 29,-10 79,-15 151,-16 67,-123 110,-201 128,-235 19,-34 42,-76 72,-127 29,-52 63,-111 100,-176 37,-66 87,-153 150,-263z"/>
   <path id="1" class="fil5" d="M39448 1386l-5 25c0,14 -1,35 -5,62 -3,41 -8,74 -14,100 -6,26 -14,48 -26,65 -12,17 -28,35 -48,55 -61,56 -122,84 -184,84 -51,0 -88,-19 -112,-56 -23,-37 -35,-96 -35,-178 0,-65 7,-146 22,-242 14,-96 32,-182 53,-258l10 -33c0,-4 3,-15 8,-31 31,-114 60,-198 85,-253 26,-55 58,-99 95,-132 32,-26 69,-39 110,-39 60,0 96,36 108,108 12,-10 23,-22 34,-35 24,-30 43,-49 56,-59 14,-10 29,-14 47,-14 72,0 108,71 108,213 0,78 -9,153 -26,226 -16,73 -37,133 -63,178 -25,46 -51,70 -76,70 -27,0 -41,-53 -41,-157 0,-56 -3,-99 -10,-130 -6,-32 -15,-56 -29,-74 -25,47 -41,154 -49,322 -6,97 -10,158 -13,183z"/>
   <path id="2" class="fil5" d="M40095 555l6 -15c55,-156 102,-266 143,-330 19,-30 46,-57 80,-80 64,-41 125,-62 182,-62 33,0 58,8 76,23 18,15 27,37 27,65 0,19 -13,59 -38,119 -43,99 -74,193 -95,280 14,1 28,4 41,7 50,8 83,16 99,26 16,10 24,27 24,52 0,43 -11,84 -34,122 -22,37 -52,64 -89,82 -27,12 -72,21 -134,25 -11,33 -23,77 -35,134 -8,50 -16,120 -25,208 -5,33 -8,64 -8,92 0,132 64,198 192,198l8 0 4 0c15,0 22,3 22,8 0,13 -14,36 -43,67 -28,32 -60,60 -94,84 -37,26 -77,45 -120,60 -44,15 -84,23 -119,23 -88,0 -160,-29 -214,-89 -55,-59 -83,-138 -83,-235 0,-42 8,-97 22,-165 15,-68 38,-159 69,-272 5,-20 10,-41 16,-64 6,-22 9,-35 10,-39 -34,-1 -58,-8 -72,-22 -14,-13 -22,-35 -22,-65 0,-53 21,-103 62,-149 40,-47 88,-77 142,-88z"/>
  </g>
 </g>
</svg>
